# xmcd CD database file
#
# Track frame offsets:
#	150
#	11912
#	26405
#	42042
#	59647
#	75397
#	92422
#	116755
#	133760
#	148485
#	162960
#	176260
#	195985
#	215387
#
# Disc length: 3226 seconds
#
# Revision: 0
# Processed by: cddbd v1.4PL0 Copyright (c) Steve Scherf et al.
# Submitted via: Feurio! 1.65 - http://www.feurio.com
#
DISCID=ba0c980e
DTITLE=Jambirds - Come on into my kitchen
DYEAR=1900
DGENRE=blues
TTITLE0=Slippin'n slidin'
TTITLE1=Step it up'n go
TTITLE2=Hot tamales, they're red hot
TTITLE3=How long Blues
TTITLE4=Magnolia
TTITLE5=Blues Power
TTITLE6=Bring it on home
TTITLE7=Chattanooga Choo Choo
TTITLE8=Key to the Highway
TTITLE9=San Francisco Bay
TTITLE10=Nobody knows you when you down and out
TTITLE11=My Bonnie
TTITLE12=Flip, flop'n fly
TTITLE13=Ramblin' on my mind
EXTD=
EXTT0=
EXTT1=
EXTT2=
EXTT3=
EXTT4=
EXTT5=
EXTT6=
EXTT7=
EXTT8=
EXTT9=
EXTT10=
EXTT11=
EXTT12=
EXTT13=
PLAYORDER=
